<svg viewBox="0 0 18 18"><path class="ql-fill" d="M16.652 12.307a2.674 2.674 0 0 1-2.915 2.684 3.966 3.966 0 0 1-2.256-.67.56.56 0 0 1-.132-.837l.297-.484c.21-.34.484-.363.825-.154a2.327 2.327 0 0 0 1.123.33c.715 0 1.122-.352 1.122-.781 0-.616-.616-.869-1.464-.869h-.043a.652.652 0 0 1-.683-.419l-.055-.109a.671.671 0 0 1 .143-.781l.716-.87a8.553 8.553 0 0 1 .682-.737V8.59a3.94 3.94 0 0 1-.748.055h-1.277a.54.54 0 0 1-.605-.606v-.44a.54.54 0 0 1 .605-.605h3.752a.538.538 0 0 1 .605.594v.177a1.037 1.037 0 0 1-.275.748l-1.32 1.517a2.311 2.311 0 0 1 1.903 2.278zM9 3a1 1 0 0 0-1 1v4H3V4a1 1 0 0 0-2 0v10a1 1 0 0 0 2 0v-4h5v4a1 1 0 0 0 2 0V4a1 1 0 0 0-1-1z"/></svg>