<svg xmlns="http://www.w3.org/2000/svg" viewBox="0 0 448 512"><path d="M32 464c0 26.51 21.49 48 48 48h288c26.51 0 48-21.49 48-48V128H32zm292.69-110.26L235.31 448c-6.1 6.591-16.52 6.591-22.62 0l-89.38-94.26c-10.08-10.62-2.805-30.76 11.32-28.8H192v-112c0-8.837 7.163-16 16-16h32c8.837 0 16 7.163 16 16v112h57.37c14.26 0 21.4 18.18 11.32 28.8zM432 32H312l-9.4-18.7A24 24 0 0 0 281.1 0H166.8a23.72 23.72 0 0 0-21.4 13.3L136 32H16C7.163 32 0 39.163 0 48v32c0 8.837 7.163 16 16 16h416c8.837 0 16-7.163 16-16V48c0-8.837-7.163-16-16-16z"/></svg>